# xmcd
#
# Track frame offsets:
#	150
#	11115
#	23802
#	33506
#	43915
#	53107
#	62174
#	74513
#	87051
#	97961
#	111767
#	121408
#	132173
#	140938
#	151850
#	162658
#	175249
#	190007
#	203409
#	215113
#	226170
#	239324
#	250426
#	263591
#	274356
#	287664
#	299460
#	310306
#	321796
#	333355
#
# Disc length: 4572
#
# Revision: 1
# Processed by: cddbd v1.5.1PL0 Copyright (c) Steve Scherf et al.
# Submitted via: EasyCDDAExtractor 4.6.0.1
# Normalized: r0:TDELIM( - )
#
DISCID=c511da1e
DTITLE=Various Artist - A Million Dollars Worth Of Doo-Wop  Vol 9
DYEAR=1900
DGENRE=blues
TTITLE0=Five Kids - Carolyn
TTITLE1=Babettes - We Can Live Off Love
TTITLE2=Fabulous Three - Cross Every mountain
TTITLE3=Sinceres (Johnny and the) - Why Don't You Write Me
TTITLE4=Future-Tones - All I Want Is You
TTITLE5=Markeets - Teardrops
TTITLE6=Roy Perkins and group - You're Gone
TTITLE7=Nomads - You're The Only One
TTITLE8=Challengers - I Can Tell
TTITLE9=Continentals - It Doesn't Matter
TTITLE10=Sonny Fulton and group - Honest I Do
TTITLE11=Sound-Masters - I Want You To Be My Baby
TTITLE12=Jermones - The Rocking Chair Song
TTITLE13=Wheels (Rudy and the) - It's Not For Me
TTITLE14=Monarchs - Love You That's Why
TTITLE15=Pipies - So Long
TTITLE16=Toreadores - Do You Remember
TTITLE17=Cliff Butler and group - Jealous Hearted Woman
TTITLE18=Montclairs - All I Want Is Love
TTITLE19=Convincers - Rejected Love
TTITLE20=Ink Spots - A Man
TTITLE21=Dealers - Cinderella
TTITLE22=Hi-Liters - In The Night
TTITLE23=Nu-Ports (Tyrone and the) - The Combination
TTITLE24=Eagle-Aires - Number One Baby
TTITLE25=Sue Allen, Oscar Black and group - Don't Leave Me to Cry
TTITLE26=Holy Shepiterds - Beulah Land
TTITLE27=Gloria Knight and group - Lonely Girl
TTITLE28=Peacocks - My New Hi Fi
TTITLE29=Johnny Ross and group - That's What You Mean To Me
EXTD=
EXTT0=
EXTT1=
EXTT2=
EXTT3=
EXTT4=
EXTT5=
EXTT6=
EXTT7=
EXTT8=
EXTT9=
EXTT10=
EXTT11=
EXTT12=
EXTT13=
EXTT14=
EXTT15=
EXTT16=
EXTT17=
EXTT18=
EXTT19=
EXTT20=
EXTT21=
EXTT22=
EXTT23=
EXTT24=
EXTT25=
EXTT26=
EXTT27=
EXTT28=
EXTT29=
PLAYORDER=
